<?xml version="1.0" encoding="UTF-8"?>
<svg xmlns="http://www.w3.org/2000/svg" xmlns:xlink="http://www.w3.org/1999/xlink" width="375pt" height="374.999991pt" viewBox="0 0 375 374.999991" version="1.2">
<defs>
<clipPath id="clip1">
  <path d="M 112.5 112.5 L 262.5 112.5 L 262.5 262.5 L 112.5 262.5 Z M 112.5 112.5 "/>
</clipPath>
</defs>
<g id="surface1">
<rect x="0" y="0" width="375" height="374.999991" style="fill:rgb(100%,100%,100%);fill-opacity:1;stroke:none;"/>
<rect x="0" y="0" width="375" height="374.999991" style="fill:rgb(100%,100%,100%);fill-opacity:1;stroke:none;"/>
<rect x="0" y="0" width="375" height="374.999991" style="fill:rgb(100%,100%,100%);fill-opacity:1;stroke:none;"/>
<g clip-path="url(#clip1)" clip-rule="nonzero">
<path style=" stroke:none;fill-rule:nonzero;fill:rgb(0%,0%,0%);fill-opacity:1;" d="M 143.183594 112.5 C 126.273438 112.5 112.5 126.273438 112.5 143.183594 L 112.5 231.816406 C 112.5 248.726562 126.273438 262.5 143.183594 262.5 L 231.816406 262.5 C 248.726562 262.5 262.5 248.726562 262.5 231.816406 L 262.5 143.183594 C 262.5 126.273438 248.726562 112.5 231.816406 112.5 Z M 155.867188 136.363281 L 184.089844 136.363281 C 196.566406 136.363281 205.363281 139.292969 204.339844 153.203125 C 203.417969 166.019531 195.136719 168.378906 195.136719 168.378906 C 195.136719 168.378906 197.828125 173.320312 196.875 182.660156 C 195.886719 192.511719 196.980469 196.160156 197.898438 197.726562 L 181.128906 197.726562 C 181.128906 197.726562 180.171875 195.714844 180.648438 191.792969 C 182.113281 180.136719 180.441406 173.863281 172.292969 173.863281 L 162.511719 173.863281 L 157.265625 197.726562 L 142.703125 197.726562 Z M 168.03125 146.691406 L 164.695312 163.535156 L 179.929688 163.535156 C 184.53125 163.535156 189.441406 161.996094 190.636719 156.066406 C 191.863281 150.03125 187.605469 146.691406 183.105469 146.691406 Z M 212.488281 184.089844 L 215.726562 204.445312 L 235.226562 204.445312 L 217.503906 217.570312 L 221.589844 238.636719 L 205.125 225.851562 L 184.089844 238.636719 L 193.980469 216.851562 L 180.683594 204.546875 L 201.136719 204.546875 Z M 212.488281 184.089844 "/>
</g>
</g>
</svg>
