<svg width="500" height="100" viewBox="0 0 500 100" fill="none" xmlns="http://www.w3.org/2000/svg">
<g id="Frame 1">
<rect width="500" height="100" fill="white"/>
<g id="facebook">
<circle id="facebook-c" cx="150" cy="50" r="24.5" fill="#3239F3" stroke="#3239F3"/>
<path id="facebook-icon" d="M155.261 39.9812H158V35.2112C157.528 35.1462 155.903 35 154.01 35C150.062 35 147.357 37.4837 147.357 42.0487V46.25H143V51.5825H147.357V65H152.699V51.5838H156.88L157.544 46.2513H152.698V42.5775C152.699 41.0362 153.114 39.9812 155.261 39.9812V39.9812Z" fill="white"/>
</g>
<g id="insta">
<circle id="insta-c" cx="250" cy="50" r="24.5" fill="#EC5252" stroke="#EC5252"/>
<path id="insta-frame" d="M264.924 43.8201C264.853 42.2261 264.596 41.1302 264.226 40.1806C263.845 39.1727 263.259 38.2702 262.491 37.52C261.741 36.7582 260.832 36.1662 259.836 35.7912C258.881 35.4219 257.79 35.1641 256.196 35.0939C254.59 35.0176 254.08 35 250.006 35C245.932 35 245.422 35.0176 243.822 35.0879C242.227 35.1582 241.131 35.4162 240.182 35.7852C239.173 36.1662 238.271 36.7522 237.521 37.52C236.758 38.2702 236.167 39.1786 235.791 40.1749C235.422 41.1302 235.164 42.2201 235.094 43.8142C235.018 45.4201 235 45.9299 235 50.003C235 54.0761 235.018 54.5859 235.088 56.1858C235.158 57.7799 235.416 58.8757 235.786 59.8253C236.167 60.8333 236.758 61.7357 237.521 62.4859C238.271 63.2478 239.179 63.8398 240.176 64.2148C241.131 64.584 242.222 64.8418 243.816 64.9121C245.416 64.9826 245.926 65 250 65C254.074 65 254.584 64.9826 256.184 64.9121C257.778 64.8418 258.875 64.584 259.824 64.2148C261.841 63.4353 263.435 61.8413 264.215 59.8253C264.584 58.87 264.842 57.7799 264.912 56.1858C264.982 54.5859 265 54.0761 265 50.003C265 45.9299 264.994 45.4201 264.924 43.8201ZM262.222 56.0686C262.157 57.5338 261.911 58.3249 261.706 58.8524C261.202 60.1593 260.164 61.1966 258.857 61.7007C258.329 61.9058 257.532 62.1519 256.073 62.2162C254.49 62.2868 254.015 62.3042 250.012 62.3042C246.008 62.3042 245.528 62.2868 243.951 62.2162C242.485 62.1519 241.694 61.9058 241.166 61.7007C240.516 61.4603 239.924 61.0794 239.443 60.5812C238.945 60.0948 238.564 59.5087 238.324 58.8583C238.118 58.3309 237.872 57.5338 237.808 56.0746C237.737 54.4922 237.72 54.0174 237.72 50.0147C237.72 46.0119 237.737 45.5313 237.808 43.9549C237.872 42.4898 238.118 41.6986 238.324 41.1712C238.564 40.5206 238.945 39.9288 239.449 39.4481C239.935 38.9499 240.522 38.569 241.172 38.3288C241.7 38.1237 242.497 37.8776 243.957 37.8131C245.539 37.7428 246.014 37.7252 250.018 37.7252C254.027 37.7252 254.502 37.7428 256.079 37.8131C257.544 37.8776 258.335 38.1237 258.863 38.3288C259.513 38.569 260.106 38.9499 260.586 39.4481C261.084 39.9345 261.465 40.5206 261.706 41.1712C261.911 41.6986 262.157 42.4955 262.222 43.9549C262.292 45.5373 262.31 46.0119 262.31 50.0147C262.31 54.0174 262.292 54.4863 262.222 56.0686Z" fill="white"/>
<path id="insta-circle" d="M250 49C245.583 49 242 49.2239 242 49.5C242 49.7761 245.583 50 250 50C254.417 50 258 49.7761 258 49.5C258 49.2239 254.417 49 250 49ZM250 49.8243C247.135 49.8243 244.811 49.6791 244.811 49.5C244.811 49.3209 247.135 49.1757 250 49.1757C252.865 49.1757 255.189 49.3209 255.189 49.5C255.189 49.6791 252.865 49.8243 250 49.8243V49.8243Z" fill="white"/>
<path id="insta-dot" d="M259.818 41.9916C259.818 42.9852 259.013 43.7908 258.019 43.7908C257.025 43.7908 256.219 42.9852 256.219 41.9916C256.219 40.9979 257.025 40.1925 258.019 40.1925C259.013 40.1925 259.818 40.9979 259.818 41.9916V41.9916Z" fill="white"/>
</g>
<g id="twitter">
<circle id="twitter-c" cx="350" cy="50" r="24.5" fill="#78E7FF" stroke="#78E7FF"/>
<path id="twitter-icon" d="M332.536 61.6843C335.955 63.8538 339.934 65 344.042 65C350.058 65 355.571 62.689 359.566 58.4933C363.39 54.4776 365.493 49.0818 365.388 43.606C366.838 42.3659 368.542 39.998 368.542 37.6901C368.542 36.8054 367.582 36.2438 366.804 36.6946C365.442 37.4947 364.2 37.704 362.923 37.3455C360.316 34.8037 356.434 34.2683 353.163 36.0315C350.304 37.5701 348.715 40.3857 348.858 43.4629C344.028 42.8736 339.566 40.4519 336.455 36.6885C335.944 36.0746 334.975 36.1469 334.569 36.8423C333.07 39.4087 333.086 42.3828 334.389 44.7845C333.769 44.8938 333.386 45.4153 333.386 45.98C333.386 48.394 334.472 50.6127 336.221 52.1267C335.895 52.4405 335.787 52.9067 335.926 53.3221C336.695 55.6331 338.437 57.4394 340.614 58.3441C338.246 59.4749 335.627 59.8519 333.296 59.5657C332.09 59.4026 331.495 61.0243 332.536 61.6843Z" fill="#18DAF4"/>
</g>
</g>
</svg>
