<svg width="500" height="500" viewBox="0 0 500 500" fill="none" xmlns="http://www.w3.org/2000/svg">
<g id="Frame 1">
<rect width="500" height="500" fill="white"/>
<g id="undraw_Taken_re_yn20 1" clip-path="url(#clip0)">
<g id="c-1">
<path id="head" d="M236.43 448.428C249.264 448.428 259.668 438.035 259.668 425.214C259.668 412.393 249.264 402 236.43 402C223.596 402 213.191 412.393 213.191 425.214C213.191 438.035 223.596 448.428 236.43 448.428Z" fill="#2F2E41"/>
<g id="leg-l">
<path id="Vector" d="M226.561 441.291L219.448 451.747L225.284 455.71L232.397 445.254L226.561 441.291Z" fill="#2F2E41"/>
<path id="Vector_2" d="M226.273 454.424C226.363 453.21 223.81 452.034 220.57 451.797C217.331 451.561 214.632 452.353 214.542 453.568C214.452 454.782 217.006 455.958 220.245 456.194C223.485 456.431 226.184 455.638 226.273 454.424Z" fill="#2F2E41"/>
</g>
<g id="leg-r">
<path id="Vector_3" d="M246.249 439.845L240.002 443.121L245.884 454.315L252.132 451.04L246.249 439.845Z" fill="#2F2E41"/>
<path id="Vector_4" d="M250.836 455.368C254.082 455.5 256.752 454.621 256.8 453.404C256.848 452.188 254.257 451.094 251.011 450.962C247.766 450.83 245.096 451.709 245.047 452.926C244.999 454.142 247.591 455.236 250.836 455.368Z" fill="#2F2E41"/>
</g>
<path id="eye-o" d="M234.803 427.47C239.189 427.47 242.745 423.917 242.745 419.536C242.745 415.154 239.189 411.602 234.803 411.602C230.416 411.602 226.861 415.154 226.861 419.536C226.861 423.917 230.416 427.47 234.803 427.47Z" fill="white"/>
<path id="eye-i" d="M240.619 421.613C241.649 420.585 241.643 418.911 240.606 417.875C239.569 416.84 237.894 416.834 236.864 417.862C235.835 418.891 235.841 420.564 236.877 421.6C237.914 422.636 239.589 422.642 240.619 421.613Z" fill="#3F3D56"/>
<path id="arm-r" d="M268.157 437.37C269.686 436.059 267.536 431.053 263.356 426.189C259.176 421.325 254.549 418.445 253.02 419.756C251.492 421.067 253.641 426.072 257.821 430.936C262.001 435.8 266.628 438.68 268.157 437.37Z" fill="#2F2E41"/>
<path id="arm-l" d="M215.104 430.936C219.284 426.072 221.433 421.067 219.905 419.756C218.376 418.445 213.748 421.325 209.568 426.189C205.389 431.053 203.239 436.059 204.768 437.37C206.296 438.68 210.924 435.8 215.104 430.936Z" fill="#2F2E41"/>
<path id="mouth" d="M242.812 434.362C243.064 435.742 242.756 437.166 241.957 438.319C241.158 439.473 239.933 440.262 238.551 440.513C237.17 440.765 235.745 440.457 234.59 439.659C233.435 438.861 232.645 437.637 232.394 436.257L232.392 436.247C231.871 433.372 234.623 436.767 237.5 436.247C240.377 435.726 242.291 431.488 242.812 434.362Z" fill="white"/>
</g>
<g id="spaceship">
<g id="Vector_5">
<mask id="path-11-inside-1" fill="white">
<path d="M358.367 137.305C346.497 134.091 334.456 131.538 322.302 129.658C302.382 126.574 282.299 124.646 262.155 123.884C253.764 123.541 245.218 123.365 236.578 123.365C229.73 123.365 222.937 123.475 216.239 123.696C196.59 124.276 176.987 125.931 157.518 128.652C143.107 130.635 128.835 133.525 114.789 137.305C82.0376 146.351 64 158.474 64 171.436C64 184.399 82.0376 196.522 114.789 205.567C137.821 211.933 166.219 216.27 197.162 218.26C209.933 219.088 223.137 219.508 236.578 219.508C250.063 219.508 263.311 219.083 276.121 218.254C304.281 216.436 330.334 212.673 352.138 207.203C352.255 207.17 352.365 207.142 352.482 207.115C353.953 206.75 355.402 206.369 356.835 205.987C357.349 205.844 357.858 205.706 358.367 205.567C358.396 205.556 358.425 205.547 358.455 205.54C358.942 205.407 359.423 205.269 359.905 205.136C360.867 204.86 361.818 204.589 362.753 204.308C362.797 204.297 362.836 204.286 362.875 204.274C363.688 204.031 364.485 203.788 365.275 203.545C365.923 203.341 366.564 203.142 367.2 202.937C367.665 202.788 368.124 202.639 368.578 202.49C368.91 202.379 369.236 202.274 369.557 202.164C369.994 202.02 370.431 201.871 370.862 201.722C371.045 201.661 371.227 201.6 371.404 201.534C371.819 201.396 372.223 201.252 372.627 201.108C373.064 200.954 373.501 200.793 373.932 200.639C374.292 200.512 374.651 200.379 375.005 200.246C375.304 200.13 375.597 200.02 375.896 199.909C376.709 199.605 377.505 199.29 378.291 198.981C378.684 198.821 379.076 198.666 379.463 198.506C379.845 198.351 380.232 198.191 380.608 198.031C381.228 197.771 381.836 197.511 382.434 197.252C382.721 197.119 383.015 196.992 383.297 196.87C383.512 196.771 383.722 196.677 383.938 196.577C384.093 196.511 384.248 196.439 384.397 196.368C384.956 196.113 385.509 195.854 386.051 195.594C388.131 194.599 390.073 193.583 391.876 192.544C403.187 186.074 409.156 178.896 409.156 171.436C409.156 158.474 391.118 146.351 358.367 137.305ZM358.068 204.507C335.008 210.877 306.533 215.215 275.507 217.188C262.89 217.989 249.848 218.403 236.578 218.403C223.352 218.403 210.354 217.994 197.775 217.193C166.7 215.226 138.181 210.889 115.087 204.507C82.8563 195.599 65.1063 183.858 65.1063 171.436C65.1081 170.339 65.2456 169.246 65.5157 168.182C68.3365 156.976 85.6884 146.489 115.087 138.366C129.028 134.615 143.19 131.742 157.491 129.763C177.076 127.026 196.797 125.366 216.565 124.79C223.159 124.575 229.83 124.468 236.578 124.47C245.102 124.47 253.531 124.641 261.817 124.972C282.079 125.728 302.278 127.665 322.314 130.774C334.363 132.646 346.299 135.18 358.068 138.366C387.462 146.489 404.808 156.971 407.634 168.171C407.909 169.238 408.048 170.335 408.049 171.436C408.049 183.858 390.299 195.599 358.068 204.507Z"/>
<path d="M358.068 204.507C335.008 210.877 306.533 215.215 275.507 217.188C262.89 217.989 249.848 218.403 236.578 218.403C223.352 218.403 210.354 217.994 197.775 217.193C166.7 215.226 138.181 210.889 115.087 204.507C82.8563 195.599 65.1063 183.858 65.1063 171.436C65.1081 170.339 65.2456 169.246 65.5157 168.182C68.3365 156.976 85.6884 146.489 115.087 138.366C129.028 134.615 143.19 131.742 157.491 129.763C177.076 127.026 196.797 125.366 216.565 124.79C223.159 124.575 229.83 124.468 236.578 124.47C245.102 124.47 253.531 124.641 261.817 124.972C282.079 125.728 302.278 127.665 322.314 130.774C334.363 132.646 346.299 135.18 358.068 138.366C387.462 146.489 404.808 156.971 407.634 168.171C407.909 169.238 408.048 170.335 408.049 171.436C408.049 183.858 390.299 195.599 358.068 204.507Z"/>
</mask>
<path d="M358.367 137.305C346.497 134.091 334.456 131.538 322.302 129.658C302.382 126.574 282.299 124.646 262.155 123.884C253.764 123.541 245.218 123.365 236.578 123.365C229.73 123.365 222.937 123.475 216.239 123.696C196.59 124.276 176.987 125.931 157.518 128.652C143.107 130.635 128.835 133.525 114.789 137.305C82.0376 146.351 64 158.474 64 171.436C64 184.399 82.0376 196.522 114.789 205.567C137.821 211.933 166.219 216.27 197.162 218.26C209.933 219.088 223.137 219.508 236.578 219.508C250.063 219.508 263.311 219.083 276.121 218.254C304.281 216.436 330.334 212.673 352.138 207.203C352.255 207.17 352.365 207.142 352.482 207.115C353.953 206.75 355.402 206.369 356.835 205.987C357.349 205.844 357.858 205.706 358.367 205.567C358.396 205.556 358.425 205.547 358.455 205.54C358.942 205.407 359.423 205.269 359.905 205.136C360.867 204.86 361.818 204.589 362.753 204.308C362.797 204.297 362.836 204.286 362.875 204.274C363.688 204.031 364.485 203.788 365.275 203.545C365.923 203.341 366.564 203.142 367.2 202.937C367.665 202.788 368.124 202.639 368.578 202.49C368.91 202.379 369.236 202.274 369.557 202.164C369.994 202.02 370.431 201.871 370.862 201.722C371.045 201.661 371.227 201.6 371.404 201.534C371.819 201.396 372.223 201.252 372.627 201.108C373.064 200.954 373.501 200.793 373.932 200.639C374.292 200.512 374.651 200.379 375.005 200.246C375.304 200.13 375.597 200.02 375.896 199.909C376.709 199.605 377.505 199.29 378.291 198.981C378.684 198.821 379.076 198.666 379.463 198.506C379.845 198.351 380.232 198.191 380.608 198.031C381.228 197.771 381.836 197.511 382.434 197.252C382.721 197.119 383.015 196.992 383.297 196.87C383.512 196.771 383.722 196.677 383.938 196.577C384.093 196.511 384.248 196.439 384.397 196.368C384.956 196.113 385.509 195.854 386.051 195.594C388.131 194.599 390.073 193.583 391.876 192.544C403.187 186.074 409.156 178.896 409.156 171.436C409.156 158.474 391.118 146.351 358.367 137.305ZM358.068 204.507C335.008 210.877 306.533 215.215 275.507 217.188C262.89 217.989 249.848 218.403 236.578 218.403C223.352 218.403 210.354 217.994 197.775 217.193C166.7 215.226 138.181 210.889 115.087 204.507C82.8563 195.599 65.1063 183.858 65.1063 171.436C65.1081 170.339 65.2456 169.246 65.5157 168.182C68.3365 156.976 85.6884 146.489 115.087 138.366C129.028 134.615 143.19 131.742 157.491 129.763C177.076 127.026 196.797 125.366 216.565 124.79C223.159 124.575 229.83 124.468 236.578 124.47C245.102 124.47 253.531 124.641 261.817 124.972C282.079 125.728 302.278 127.665 322.314 130.774C334.363 132.646 346.299 135.18 358.068 138.366C387.462 146.489 404.808 156.971 407.634 168.171C407.909 169.238 408.048 170.335 408.049 171.436C408.049 183.858 390.299 195.599 358.068 204.507Z" fill="white"/>
<path d="M358.068 204.507C335.008 210.877 306.533 215.215 275.507 217.188C262.89 217.989 249.848 218.403 236.578 218.403C223.352 218.403 210.354 217.994 197.775 217.193C166.7 215.226 138.181 210.889 115.087 204.507C82.8563 195.599 65.1063 183.858 65.1063 171.436C65.1081 170.339 65.2456 169.246 65.5157 168.182C68.3365 156.976 85.6884 146.489 115.087 138.366C129.028 134.615 143.19 131.742 157.491 129.763C177.076 127.026 196.797 125.366 216.565 124.79C223.159 124.575 229.83 124.468 236.578 124.47C245.102 124.47 253.531 124.641 261.817 124.972C282.079 125.728 302.278 127.665 322.314 130.774C334.363 132.646 346.299 135.18 358.068 138.366C387.462 146.489 404.808 156.971 407.634 168.171C407.909 169.238 408.048 170.335 408.049 171.436C408.049 183.858 390.299 195.599 358.068 204.507Z" fill="white"/>
<path d="M358.367 137.305C346.497 134.091 334.456 131.538 322.302 129.658C302.382 126.574 282.299 124.646 262.155 123.884C253.764 123.541 245.218 123.365 236.578 123.365C229.73 123.365 222.937 123.475 216.239 123.696C196.59 124.276 176.987 125.931 157.518 128.652C143.107 130.635 128.835 133.525 114.789 137.305C82.0376 146.351 64 158.474 64 171.436C64 184.399 82.0376 196.522 114.789 205.567C137.821 211.933 166.219 216.27 197.162 218.26C209.933 219.088 223.137 219.508 236.578 219.508C250.063 219.508 263.311 219.083 276.121 218.254C304.281 216.436 330.334 212.673 352.138 207.203C352.255 207.17 352.365 207.142 352.482 207.115C353.953 206.75 355.402 206.369 356.835 205.987C357.349 205.844 357.858 205.706 358.367 205.567C358.396 205.556 358.425 205.547 358.455 205.54C358.942 205.407 359.423 205.269 359.905 205.136C360.867 204.86 361.818 204.589 362.753 204.308C362.797 204.297 362.836 204.286 362.875 204.274C363.688 204.031 364.485 203.788 365.275 203.545C365.923 203.341 366.564 203.142 367.2 202.937C367.665 202.788 368.124 202.639 368.578 202.49C368.91 202.379 369.236 202.274 369.557 202.164C369.994 202.02 370.431 201.871 370.862 201.722C371.045 201.661 371.227 201.6 371.404 201.534C371.819 201.396 372.223 201.252 372.627 201.108C373.064 200.954 373.501 200.793 373.932 200.639C374.292 200.512 374.651 200.379 375.005 200.246C375.304 200.13 375.597 200.02 375.896 199.909C376.709 199.605 377.505 199.29 378.291 198.981C378.684 198.821 379.076 198.666 379.463 198.506C379.845 198.351 380.232 198.191 380.608 198.031C381.228 197.771 381.836 197.511 382.434 197.252C382.721 197.119 383.015 196.992 383.297 196.87C383.512 196.771 383.722 196.677 383.938 196.577C384.093 196.511 384.248 196.439 384.397 196.368C384.956 196.113 385.509 195.854 386.051 195.594C388.131 194.599 390.073 193.583 391.876 192.544C403.187 186.074 409.156 178.896 409.156 171.436C409.156 158.474 391.118 146.351 358.367 137.305ZM358.068 204.507C335.008 210.877 306.533 215.215 275.507 217.188C262.89 217.989 249.848 218.403 236.578 218.403C223.352 218.403 210.354 217.994 197.775 217.193C166.7 215.226 138.181 210.889 115.087 204.507C82.8563 195.599 65.1063 183.858 65.1063 171.436C65.1081 170.339 65.2456 169.246 65.5157 168.182C68.3365 156.976 85.6884 146.489 115.087 138.366C129.028 134.615 143.19 131.742 157.491 129.763C177.076 127.026 196.797 125.366 216.565 124.79C223.159 124.575 229.83 124.468 236.578 124.47C245.102 124.47 253.531 124.641 261.817 124.972C282.079 125.728 302.278 127.665 322.314 130.774C334.363 132.646 346.299 135.18 358.068 138.366C387.462 146.489 404.808 156.971 407.634 168.171C407.909 169.238 408.048 170.335 408.049 171.436C408.049 183.858 390.299 195.599 358.068 204.507Z" stroke="black" stroke-width="2" mask="url(#path-11-inside-1)"/>
<path d="M358.068 204.507C335.008 210.877 306.533 215.215 275.507 217.188C262.89 217.989 249.848 218.403 236.578 218.403C223.352 218.403 210.354 217.994 197.775 217.193C166.7 215.226 138.181 210.889 115.087 204.507C82.8563 195.599 65.1063 183.858 65.1063 171.436C65.1081 170.339 65.2456 169.246 65.5157 168.182C68.3365 156.976 85.6884 146.489 115.087 138.366C129.028 134.615 143.19 131.742 157.491 129.763C177.076 127.026 196.797 125.366 216.565 124.79C223.159 124.575 229.83 124.468 236.578 124.47C245.102 124.47 253.531 124.641 261.817 124.972C282.079 125.728 302.278 127.665 322.314 130.774C334.363 132.646 346.299 135.18 358.068 138.366C387.462 146.489 404.808 156.971 407.634 168.171C407.909 169.238 408.048 170.335 408.049 171.436C408.049 183.858 390.299 195.599 358.068 204.507Z" stroke="black" stroke-width="2" mask="url(#path-11-inside-1)"/>
</g>
<path id="Vector_6" d="M408.84 171.939C408.84 179.321 402.75 186.306 391.875 192.544C390.067 193.583 388.12 194.599 386.051 195.594C385.509 195.854 384.956 196.113 384.397 196.368C384.248 196.439 384.093 196.511 383.938 196.578C383.722 196.677 383.512 196.771 383.297 196.87C383.015 196.992 382.721 197.119 382.434 197.252C381.836 197.511 381.228 197.771 380.608 198.031C380.232 198.191 379.845 198.351 379.463 198.506C379.076 198.666 378.683 198.821 378.291 198.981C377.505 199.291 376.709 199.605 375.896 199.909C375.597 200.02 375.304 200.13 375.005 200.246C374.651 200.379 374.292 200.512 373.932 200.639C373.501 200.793 373.064 200.954 372.627 201.108C372.223 201.252 371.819 201.396 371.404 201.534C371.227 201.6 371.045 201.661 370.862 201.722C370.431 201.871 369.994 202.02 369.557 202.164C369.236 202.274 368.91 202.379 368.578 202.49C368.124 202.639 367.665 202.788 367.2 202.937C366.564 203.142 365.923 203.341 365.275 203.545C364.485 203.788 363.688 204.031 362.875 204.275C362.836 204.286 362.797 204.297 362.753 204.308C361.818 204.589 360.867 204.86 359.904 205.136C359.423 205.269 358.942 205.407 358.455 205.54C358.425 205.547 358.395 205.556 358.367 205.567C357.858 205.706 357.349 205.844 356.835 205.987C355.408 206.363 353.953 206.744 352.481 207.115C352.365 207.142 352.255 207.17 352.138 207.203C330.926 212.496 304.901 216.353 276.099 218.215C263.482 219.028 250.329 219.459 236.816 219.459C223.181 219.459 209.917 219.022 197.2 218.193C121.288 213.248 64.791 194.417 64.791 171.939C64.797 170.572 65.0057 169.212 65.4103 167.906C65.4435 168 65.4768 168.088 65.5157 168.182C73.4086 188.892 129.425 205.628 202.107 209.712C213.241 210.341 224.774 210.668 236.578 210.668C248.432 210.668 260.008 210.336 271.187 209.706C343.808 205.606 399.769 188.864 407.634 168.171C407.767 167.839 407.883 167.508 407.983 167.176C408.544 168.702 408.834 170.314 408.84 171.939V171.939Z" fill="#3F3D56"/>
<g id="circles">
<path id="Vector_7" d="M114.706 165.992C105.5 165.992 95.7161 164.013 95.7161 160.346C95.7161 156.679 105.5 154.701 114.706 154.701C123.911 154.701 133.695 156.679 133.695 160.346C133.695 164.013 123.911 165.992 114.706 165.992ZM114.706 155.806C104.167 155.806 96.8223 158.199 96.8223 160.346C96.8223 162.494 104.167 164.887 114.706 164.887C125.244 164.887 132.589 162.494 132.589 160.346C132.589 158.199 125.244 155.806 114.706 155.806V155.806Z" fill="#3F3D56"/>
<path id="Vector_8" d="M153.978 191.962C144.772 191.962 134.989 189.983 134.989 186.316C134.989 182.649 144.772 180.671 153.978 180.671C163.184 180.671 172.967 182.649 172.967 186.316C172.967 189.983 163.184 191.962 153.978 191.962ZM153.978 181.776C143.439 181.776 136.095 184.169 136.095 186.316C136.095 188.464 143.439 190.856 153.978 190.856C164.517 190.856 171.861 188.464 171.861 186.316C171.861 184.169 164.517 181.776 153.978 181.776V181.776Z" fill="#3F3D56"/>
<path id="Vector_9" d="M358.084 165.992C348.879 165.992 339.095 164.013 339.095 160.346C339.095 156.679 348.879 154.701 358.084 154.701C367.29 154.701 377.074 156.679 377.074 160.346C377.074 164.013 367.29 165.992 358.084 165.992ZM358.084 155.806C347.546 155.806 340.201 158.199 340.201 160.346C340.201 162.494 347.546 164.887 358.084 164.887C368.623 164.887 375.968 162.494 375.968 160.346C375.968 158.199 368.623 155.806 358.084 155.806V155.806Z" fill="#3F3D56"/>
<path id="Vector_10" d="M318.812 191.962C309.606 191.962 299.822 189.983 299.822 186.316C299.822 182.649 309.606 180.671 318.812 180.671C328.017 180.671 337.801 182.649 337.801 186.316C337.801 189.983 328.017 191.962 318.812 191.962ZM318.812 181.776C308.273 181.776 300.929 184.169 300.929 186.316C300.929 188.464 308.273 190.856 318.812 190.856C329.35 190.856 336.695 188.464 336.695 186.316C336.695 184.169 329.35 181.776 318.812 181.776V181.776Z" fill="#3F3D56"/>
<path id="Vector_11" d="M236.395 204.118C227.189 204.118 217.406 202.139 217.406 198.472C217.406 194.805 227.189 192.827 236.395 192.827C245.601 192.827 255.384 194.805 255.384 198.472C255.384 202.139 245.601 204.118 236.395 204.118ZM236.395 193.932C225.856 193.932 218.512 196.325 218.512 198.472C218.512 200.62 225.856 203.013 236.395 203.013C246.934 203.013 254.278 200.62 254.278 198.472C254.278 196.325 246.934 193.932 236.395 193.932V193.932Z" fill="#3F3D56"/>
</g>
<path id="Vector_12" d="M318.823 167.004C294.352 165.993 263.583 165.888 233 165.888C196 165.993 177 165.993 154 165.993C154.006 165.623 154.011 165.252 154.028 164.882C154.667 143.393 163.696 123.007 179.184 108.08C194.672 93.1531 215.391 84.8702 236.911 85.0015C258.432 85.1329 279.048 93.668 294.352 108.783C309.656 123.898 318.435 144.393 318.812 165.888C318.817 166.264 318.788 164.882 318.823 167.004Z" fill="#6C63FF"/>
</g>
<g id="rays">
<path id="Vector_13" d="M211.134 321.73C210.84 321.73 210.559 321.614 210.351 321.406C210.144 321.199 210.027 320.918 210.027 320.625V255.424C210.027 255.131 210.144 254.85 210.351 254.643C210.559 254.435 210.84 254.319 211.134 254.319C211.427 254.319 211.708 254.435 211.916 254.643C212.123 254.85 212.24 255.131 212.24 255.424V320.625C212.24 320.918 212.123 321.199 211.916 321.406C211.708 321.614 211.427 321.73 211.134 321.73Z" fill="#CCCCCC"/>
<path id="Vector_14" d="M194.54 380.301C194.246 380.301 193.965 380.184 193.757 379.977C193.55 379.77 193.433 379.489 193.433 379.196V331.676C193.433 331.383 193.55 331.102 193.757 330.895C193.965 330.687 194.246 330.571 194.54 330.571C194.833 330.571 195.114 330.687 195.322 330.895C195.529 331.102 195.646 331.383 195.646 331.676V379.196C195.646 379.489 195.529 379.77 195.322 379.977C195.114 380.184 194.833 380.301 194.54 380.301V380.301Z" fill="#CCCCCC"/>
<path id="Vector_15" d="M237.131 341.07C236.838 341.07 236.556 340.953 236.349 340.746C236.141 340.539 236.025 340.258 236.025 339.964V274.763C236.025 274.47 236.141 274.189 236.349 273.982C236.556 273.775 236.838 273.658 237.131 273.658C237.424 273.658 237.706 273.775 237.913 273.982C238.121 274.189 238.237 274.47 238.237 274.763V339.964C238.237 340.258 238.121 340.539 237.913 340.746C237.706 340.953 237.424 341.07 237.131 341.07Z" fill="#CCCCCC"/>
<path id="Vector_16" d="M221.09 388.036C220.797 388.036 220.515 387.92 220.308 387.713C220.1 387.505 219.984 387.224 219.984 386.931V360.409C219.984 360.116 220.1 359.834 220.308 359.627C220.515 359.42 220.797 359.304 221.09 359.304C221.384 359.304 221.665 359.42 221.872 359.627C222.08 359.834 222.196 360.116 222.196 360.409V386.931C222.196 387.224 222.08 387.505 221.872 387.713C221.665 387.92 221.384 388.036 221.09 388.036V388.036Z" fill="#CCCCCC"/>
<path id="Vector_17" d="M243.769 252.109C243.475 252.109 243.194 251.992 242.986 251.785C242.779 251.578 242.662 251.297 242.662 251.004V224.481C242.662 224.188 242.779 223.907 242.986 223.7C243.194 223.493 243.475 223.376 243.769 223.376C244.062 223.376 244.343 223.493 244.551 223.7C244.758 223.907 244.875 224.188 244.875 224.481V251.004C244.875 251.297 244.758 251.578 244.551 251.785C244.343 251.992 244.062 252.109 243.769 252.109V252.109Z" fill="#CCCCCC"/>
<path id="Vector_18" d="M188.455 263.712C188.162 263.712 187.88 263.596 187.673 263.389C187.465 263.181 187.349 262.9 187.349 262.607V236.085C187.349 235.792 187.465 235.511 187.673 235.303C187.88 235.096 188.162 234.98 188.455 234.98C188.749 234.98 189.03 235.096 189.237 235.303C189.445 235.511 189.561 235.792 189.561 236.085V262.607C189.561 262.9 189.445 263.181 189.237 263.389C189.03 263.596 188.749 263.712 188.455 263.712V263.712Z" fill="#CCCCCC"/>
<path id="Vector_19" d="M284.701 266.475C284.407 266.475 284.126 266.359 283.918 266.151C283.711 265.944 283.594 265.663 283.594 265.37V238.848C283.594 238.555 283.711 238.273 283.918 238.066C284.126 237.859 284.407 237.743 284.701 237.743C284.994 237.743 285.275 237.859 285.483 238.066C285.69 238.273 285.807 238.555 285.807 238.848V265.37C285.807 265.663 285.69 265.944 285.483 266.151C285.275 266.359 284.994 266.475 284.701 266.475Z" fill="#CCCCCC"/>
<path id="Vector_20" d="M282.488 349.358C282.194 349.358 281.913 349.241 281.706 349.034C281.498 348.827 281.382 348.546 281.382 348.253V316.205C281.382 315.912 281.498 315.631 281.706 315.423C281.913 315.216 282.194 315.1 282.488 315.1C282.781 315.1 283.063 315.216 283.27 315.423C283.478 315.631 283.594 315.912 283.594 316.205V348.253C283.594 348.546 283.478 348.827 283.27 349.034C283.063 349.241 282.781 349.358 282.488 349.358Z" fill="#CCCCCC"/>
<path id="Vector_21" d="M260.363 377.538C260.069 377.538 259.788 377.421 259.58 377.214C259.373 377.007 259.256 376.726 259.256 376.433V328.913C259.256 328.62 259.373 328.339 259.58 328.132C259.788 327.925 260.069 327.808 260.363 327.808C260.656 327.808 260.937 327.925 261.145 328.132C261.352 328.339 261.469 328.62 261.469 328.913V376.433C261.469 376.726 261.352 377.007 261.145 377.214C260.937 377.421 260.656 377.538 260.363 377.538Z" fill="#CCCCCC"/>
<path id="Vector_22" d="M264.788 296.313C264.494 296.313 264.213 296.196 264.005 295.989C263.798 295.782 263.681 295.501 263.681 295.208V230.007C263.681 229.714 263.798 229.433 264.005 229.225C264.213 229.018 264.494 228.902 264.788 228.902C265.081 228.902 265.362 229.018 265.57 229.225C265.777 229.433 265.894 229.714 265.894 230.007V295.208C265.894 295.501 265.777 295.782 265.57 295.989C265.362 296.196 265.081 296.313 264.788 296.313Z" fill="#CCCCCC"/>
</g>
<g id="c-2">
<path id="arm-r_2" d="M400.412 435.057C401.995 433.732 399.856 428.574 395.633 423.536C391.41 418.497 386.703 415.486 385.119 416.811C383.536 418.135 385.676 423.293 389.899 428.332C394.122 433.37 398.829 436.381 400.412 435.057Z" fill="#2F2E41"/>
<path id="head_2" d="M390.028 429.327C394.188 416.859 387.443 403.382 374.961 399.226C362.48 395.07 348.989 401.808 344.829 414.276C340.668 426.745 347.414 440.221 359.895 444.377C372.376 448.533 385.867 441.795 390.028 429.327Z" fill="#2F2E41"/>
<g id="leg-r_2">
<path id="Vector_23" d="M377.511 440.478H370.274V453.431H377.511V440.478Z" fill="#2F2E41"/>
<path id="Vector_24" d="M371.48 455.84C374.811 455.84 377.511 454.829 377.511 453.581C377.511 452.333 374.811 451.322 371.48 451.322C368.149 451.322 365.449 452.333 365.449 453.581C365.449 454.829 368.149 455.84 371.48 455.84Z" fill="#2F2E41"/>
</g>
<g id="leg-l_2">
<path id="Vector_25" d="M363.037 440.478H355.8V453.431H363.037V440.478Z" fill="#2F2E41"/>
<path id="Vector_26" d="M357.006 455.539C360.337 455.539 363.037 454.528 363.037 453.28C363.037 452.032 360.337 451.021 357.006 451.021C353.675 451.021 350.975 452.032 350.975 453.28C350.975 454.528 353.675 455.539 357.006 455.539Z" fill="#2F2E41"/>
</g>
<path id="arm-l_2" d="M350.135 418.959C348.875 417.325 343.634 419.258 338.427 423.277C333.221 427.295 330.021 431.878 331.28 433.512C332.54 435.147 337.781 433.214 342.988 429.195C348.194 425.177 351.394 420.594 350.135 418.959Z" fill="#2F2E41"/>
<path id="eye-o_2" d="M363.867 424.714C368.253 424.714 371.809 421.162 371.809 416.78C371.809 412.399 368.253 408.847 363.867 408.847C359.48 408.847 355.925 412.399 355.925 416.78C355.925 421.162 359.48 424.714 363.867 424.714Z" fill="white"/>
<path id="eye-i_2" d="M359.647 420.289C361.11 420.289 362.295 419.105 362.295 417.645C362.295 416.184 361.11 415 359.647 415C358.185 415 357 416.184 357 417.645C357 419.105 358.185 420.289 359.647 420.289Z" fill="#3F3D56"/>
<path id="mouth_2" d="M363.798 436.661C365.631 436.661 370 434.331 370 432.5C370 430.669 365.631 432.5 363.798 432.5C361.965 432.5 359 430.669 359 432.5C359 434.331 361.965 436.661 363.798 436.661Z" fill="white"/>
</g>
</g>
</g>
<defs>
<clipPath id="clip0">
<rect width="372" height="408" fill="white" transform="translate(64 48)"/>
</clipPath>
</defs>
</svg>
