<svg width="400" height="400" viewBox="0 0 400 400" fill="none" xmlns="http://www.w3.org/2000/svg">
<rect width="400" height="400" fill="#E5E5E5"/>
<g id="Frame 1">
<rect width="400" height="400" fill="white"/>
<path id="Arrow 1" d="M348.317 64.4622C348.528 64.2835 348.553 63.968 348.375 63.7575L345.462 60.3272C345.283 60.1167 344.968 60.0909 344.757 60.2696C344.547 60.4484 344.521 60.7639 344.7 60.9744L347.289 64.0236L344.239 66.6125C344.029 66.7912 344.003 67.1067 344.182 67.3172C344.361 67.5277 344.676 67.5535 344.887 67.3748L348.317 64.4622ZM199.959 52.4983L347.953 64.5794L348.034 63.5828L200.041 51.5017L199.959 52.4983Z" fill="black"/>
<line id="Line 1" x1="199.938" y1="36.0004" x2="360.938" y2="34.0004" stroke="black" stroke-width="10"/>
<g id="circleandrect">
<rect id="Rectangle 1" x="206" y="97" width="135" height="79" rx="32" fill="#A63333"/>
<circle id="Ellipse 1" cx="272" cy="135" r="40.5" stroke="#2B4397" stroke-width="19"/>
</g>
<path id="Polygon 1" d="M92.5 115L132.77 182.5H52.2298L92.5 115Z" fill="#C4C4C4"/>
<path id="Star 1" d="M108.5 208L126.124 256.023L183.158 256.023L137.017 285.703L154.641 333.727L108.5 304.047L62.3589 333.727L79.9832 285.703L33.8421 256.023L90.8756 256.023L108.5 208Z" fill="#8F4545"/>
<path id="pencil" d="M116.712 103.287C116.712 105.559 115.873 135.484 119.59 134.808C122.244 134.325 124.936 131.479 126.964 129.907C130.333 127.295 134.709 125.16 137.216 121.633C141.003 116.308 140.077 127.608 140.139 130.176C140.176 131.698 141.339 154.537 144.771 153.289C148.231 152.031 151.72 149.207 155.113 147.623C159.031 145.795 163.151 144.565 165.455 140.878C168.059 136.712 165.31 150.75 164.421 155.582C163.342 161.448 162.142 167.178 162.038 173.164C162.007 174.901 162.038 176.642 162.038 178.38C162.038 178.859 161.609 180.033 162.038 179.819C162.892 179.391 164.456 176.494 165.365 175.727C167.184 174.192 169.127 172.817 170.941 171.275C172.341 170.085 171.293 173.583 171.211 173.838C169.151 180.203 167.868 185.207 167.748 192.094C167.674 196.341 165.422 214.845 170.941 218.04C173.76 219.672 181.21 208.943 182.227 207.653C182.584 207.2 189.107 198.393 189.377 198.704C190.439 199.93 189.604 205.385 189.467 206.888C189.099 210.936 187.346 214.684 186.319 218.579C184.418 225.791 184.7 233.221 184.7 240.613C184.7 241.343 184.066 245.956 185.195 246.458C188.079 247.74 192.83 242.982 194.458 241.512C197.627 238.649 201.81 235.262 203.766 231.35C204.417 230.048 204.202 229.551 205.744 229.551" stroke="black" stroke-width="10" stroke-linecap="round" stroke-linejoin="round"/>
<g id="weirdshapeandtext">
<path id="Vector 1" d="M345.553 190.102C326.387 221.935 272.453 269.402 210.053 204.602C210.053 204.602 262.553 269.602 199.053 292.102C135.553 314.602 289.631 411.209 351.553 319.602C413.476 227.995 342.27 138.611 345.553 190.102Z" fill="#9332B6"/>
<path id="HELLOO!" d="M262.194 294.602H258.801V282.772H245.899V294.602H242.524V269.008H245.899V280.012H258.801V269.008H262.194V294.602ZM282.655 282.772H271.563V291.842H284.448V294.602H268.188V269.008H284.272V271.786H271.563V280.012H282.655V282.772ZM292.042 291.842H304.17V294.602H288.649V269.008H292.042V291.842ZM311.413 291.842H323.542V294.602H308.02V269.008H311.413V291.842ZM262.212 324.631C262.212 327.139 261.79 329.331 260.946 331.206C260.102 333.069 258.907 334.493 257.36 335.477C255.813 336.461 254.008 336.954 251.946 336.954C249.93 336.954 248.143 336.461 246.585 335.477C245.026 334.481 243.813 333.069 242.946 331.241C242.09 329.401 241.651 327.274 241.628 324.86V323.014C241.628 320.553 242.055 318.379 242.911 316.493C243.766 314.606 244.973 313.165 246.532 312.168C248.102 311.161 249.895 310.657 251.911 310.657C253.962 310.657 255.766 311.155 257.325 312.151C258.895 313.135 260.102 314.571 260.946 316.458C261.79 318.333 262.212 320.518 262.212 323.014V324.631ZM258.854 322.979C258.854 319.944 258.245 317.618 257.026 316C255.807 314.372 254.102 313.557 251.911 313.557C249.778 313.557 248.096 314.372 246.866 316C245.647 317.618 245.02 319.868 244.985 322.75V324.631C244.985 327.573 245.6 329.887 246.831 331.575C248.073 333.25 249.778 334.088 251.946 334.088C254.126 334.088 255.813 333.297 257.008 331.715C258.204 330.122 258.819 327.842 258.854 324.877V322.979ZM286.962 324.631C286.962 327.139 286.54 329.331 285.696 331.206C284.852 333.069 283.657 334.493 282.11 335.477C280.563 336.461 278.758 336.954 276.696 336.954C274.68 336.954 272.893 336.461 271.335 335.477C269.776 334.481 268.563 333.069 267.696 331.241C266.84 329.401 266.401 327.274 266.378 324.86V323.014C266.378 320.553 266.805 318.379 267.661 316.493C268.516 314.606 269.723 313.165 271.282 312.168C272.852 311.161 274.645 310.657 276.661 310.657C278.712 310.657 280.516 311.155 282.075 312.151C283.645 313.135 284.852 314.571 285.696 316.458C286.54 318.333 286.962 320.518 286.962 323.014V324.631ZM283.604 322.979C283.604 319.944 282.995 317.618 281.776 316C280.557 314.372 278.852 313.557 276.661 313.557C274.528 313.557 272.846 314.372 271.616 316C270.397 317.618 269.77 319.868 269.735 322.75V324.631C269.735 327.573 270.35 329.887 271.581 331.575C272.823 333.25 274.528 334.088 276.696 334.088C278.876 334.088 280.563 333.297 281.758 331.715C282.954 330.122 283.569 327.842 283.604 324.877V322.979ZM295.153 329.377H292.217L291.989 311.008H295.399L295.153 329.377ZM291.866 334.967C291.866 334.44 292.024 334 292.34 333.649C292.669 333.286 293.149 333.104 293.782 333.104C294.415 333.104 294.895 333.286 295.223 333.649C295.551 334 295.715 334.44 295.715 334.967C295.715 335.495 295.551 335.934 295.223 336.286C294.895 336.625 294.415 336.795 293.782 336.795C293.149 336.795 292.669 336.625 292.34 336.286C292.024 335.934 291.866 335.495 291.866 334.967Z" fill="white"/>
</g>
</g>
</svg>
